<svg xmlns="http://www.w3.org/2000/svg" xmlns:xlink= "http://www.w3.org/1999/xlink" width="500" height="500" viewBox="0 0 375 375">
<g transform="matrix(2.410, 2.410, -2.410, 2.410, 170.454, -70.604)">
<path id="track1" fill="none" stroke="#3498db" stroke-width="2" d="M 90.000 49.999 C 90.000 50.163 89.984 50.327 89.951 50.490 C 89.920 50.653 89.871 50.817 89.807 50.980 C 89.743 51.143 89.663 51.306 89.566 51.467 C 89.471 51.629 89.358 51.790 89.231 51.950 C 89.104 52.111 88.960 52.271 88.801 52.429 C 88.641 52.588 88.467 52.746 88.277 52.902 C 88.088 53.059 87.882 53.214 87.661 53.368 C 87.441 53.522 87.205 53.675 86.954 53.826 C 86.704 53.978 86.439 54.128 86.159 54.275 C 85.879 54.423 85.586 54.569 85.276 54.713 C 84.968 54.858 84.646 55.000 84.309 55.141 C 83.972 55.281 83.623 55.419 83.258 55.555 C 82.895 55.691 82.518 55.825 82.128 55.956 C 81.738 56.088 81.335 56.217 80.920 56.344 C 80.504 56.470 80.077 56.594 79.638 56.715 C 79.198 56.836 78.747 56.955 78.284 57.071 C 77.820 57.186 77.346 57.299 76.862 57.409 C 76.377 57.518 75.882 57.626 75.375 57.729 C 74.869 57.834 74.354 57.934 73.828 58.032 C 73.302 58.129 72.766 58.223 72.222 58.314 C 71.678 58.406 71.125 58.492 70.564 58.577 C 70.002 58.661 69.433 58.742 68.855 58.819 C 68.278 58.896 67.693 58.970 67.102 59.039 C 66.510 59.110 65.912 59.176 65.307 59.239 C 64.701 59.301 64.091 59.360 63.475 59.415 C 62.859 59.469 62.237 59.522 61.610 59.569 C 60.985 59.616 60.354 59.661 59.718 59.700 C 59.084 59.739 58.445 59.776 57.804 59.807 C 57.161 59.839 56.516 59.867 55.869 59.892 C 55.222 59.915 54.571 59.935 53.920 59.952 C 53.269 59.967 52.616 59.980 51.962 59.987 C 51.308 59.996 50.654 59.999 49.999 59.999 C 49.344 59.999 48.690 59.995 48.037 59.988 C 47.383 59.979 46.730 59.967 46.078 59.952 C 45.427 59.935 44.778 59.915 44.130 59.892 C 43.482 59.867 42.838 59.839 42.196 59.807 C 41.554 59.775 40.915 59.739 40.280 59.700 C 39.645 59.660 39.015 59.616 38.388 59.569 C 37.761 59.521 37.140 59.470 36.524 59.415 C 35.907 59.359 35.297 59.301 34.692 59.238 C 34.088 59.176 33.489 59.109 32.897 59.039 C 32.306 58.970 31.721 58.897 31.144 58.819 C 30.566 58.742 29.997 58.662 29.435 58.577 C 28.874 58.493 28.321 58.406 27.777 58.315 C 27.232 58.222 26.697 58.129 26.172 58.032 C 25.646 57.934 25.130 57.833 24.623 57.730 C 24.118 57.626 23.622 57.519 23.137 57.409 C 22.652 57.300 22.178 57.187 21.715 57.070 C 21.252 56.954 20.802 56.836 20.362 56.715 C 19.922 56.594 19.494 56.470 19.079 56.344 C 18.664 56.217 18.262 56.088 17.871 55.957 C 17.481 55.825 17.105 55.691 16.741 55.554 C 16.377 55.419 16.027 55.281 15.690 55.140 C 15.354 55.000 15.031 54.858 14.723 54.713 C 14.414 54.569 14.120 54.423 13.839 54.275 C 13.560 54.127 13.295 53.977 13.044 53.826 C 12.794 53.675 12.558 53.522 12.338 53.368 C 12.118 53.214 11.912 53.059 11.721 52.903 C 11.532 52.745 11.357 52.588 11.198 52.429 C 11.039 52.271 10.896 52.111 10.768 51.951 C 10.641 51.789 10.529 51.629 10.433 51.467 C 10.336 51.305 10.256 51.143 10.192 50.980 C 10.128 50.817 10.080 50.653 10.047 50.490 C 10.016 50.327 10.000 50.163 10.000 49.999 C 10.000 49.836 10.016 49.672 10.047 49.509 C 10.080 49.346 10.128 49.182 10.192 49.019 C 10.256 48.856 10.336 48.694 10.433 48.532 C 10.529 48.370 10.641 48.210 10.768 48.048 C 10.896 47.888 11.039 47.728 11.198 47.570 C 11.357 47.411 11.532 47.254 11.721 47.096 C 11.912 46.940 12.118 46.785 12.338 46.631 C 12.558 46.477 12.794 46.324 13.044 46.173 C 13.295 46.022 13.560 45.872 13.839 45.724 C 14.120 45.576 14.414 45.430 14.723 45.286 C 15.031 45.141 15.354 44.999 15.690 44.859 C 16.027 44.718 16.377 44.580 16.740 44.444 C 17.105 44.308 17.481 44.174 17.871 44.042 C 18.262 43.911 18.664 43.782 19.079 43.655 C 19.494 43.529 19.922 43.405 20.362 43.284 C 20.802 43.163 21.252 43.045 21.715 42.929 C 22.178 42.812 22.652 42.699 23.137 42.590 C 23.622 42.480 24.118 42.373 24.623 42.269 C 25.130 42.166 25.646 42.065 26.172 41.967 C 26.697 41.870 27.232 41.777 27.777 41.684 C 28.321 41.593 28.874 41.506 29.435 41.422 C 29.997 41.337 30.566 41.257 31.144 41.180 C 31.721 41.102 32.306 41.029 32.897 40.960 C 33.489 40.890 34.088 40.823 34.692 40.761 C 35.297 40.698 35.907 40.640 36.524 40.584 C 37.140 40.529 37.761 40.478 38.388 40.430 C 39.015 40.383 39.645 40.339 40.280 40.299 C 40.915 40.260 41.554 40.224 42.196 40.192 C 42.838 40.160 43.482 40.132 44.130 40.107 C 44.778 40.084 45.427 40.064 46.078 40.047 C 46.730 40.032 47.383 40.020 48.037 40.011 C 48.690 40.004 49.344 40.000 49.999 40.000 C 50.654 40.000 51.308 40.003 51.962 40.012 C 52.616 40.019 53.269 40.032 53.920 40.047 C 54.571 40.064 55.222 40.084 55.869 40.107 C 56.516 40.132 57.161 40.160 57.804 40.192 C 58.445 40.223 59.084 40.260 59.718 40.299 C 60.354 40.338 60.985 40.383 61.610 40.430 C 62.237 40.477 62.859 40.530 63.475 40.584 C 64.091 40.639 64.701 40.698 65.307 40.760 C 65.912 40.823 66.510 40.889 67.102 40.960 C 67.693 41.029 68.278 41.103 68.855 41.180 C 69.433 41.257 70.002 41.338 70.564 41.422 C 71.125 41.507 71.678 41.593 72.222 41.685 C 72.766 41.776 73.302 41.870 73.828 41.967 C 74.354 42.065 74.869 42.165 75.375 42.270 C 75.882 42.373 76.377 42.481 76.862 42.590 C 77.346 42.700 77.820 42.813 78.284 42.928 C 78.747 43.044 79.198 43.163 79.638 43.284 C 80.077 43.405 80.504 43.529 80.920 43.655 C 81.335 43.782 81.738 43.911 82.128 44.043 C 82.518 44.174 82.895 44.308 83.258 44.444 C 83.623 44.580 83.972 44.718 84.309 44.858 C 84.646 44.999 84.968 45.141 85.276 45.286 C 85.586 45.430 85.879 45.576 86.159 45.724 C 86.439 45.871 86.704 46.021 86.954 46.173 C 87.205 46.324 87.441 46.477 87.661 46.631 C 87.882 46.785 88.088 46.940 88.277 47.097 C 88.467 47.253 88.641 47.411 88.801 47.570 C 88.960 47.728 89.104 47.888 89.231 48.049 C 89.358 48.209 89.471 48.370 89.566 48.532 C 89.663 48.693 89.743 48.856 89.807 49.019 C 89.871 49.182 89.920 49.346 89.951 49.509 C 89.984 49.672 90.000 49.836 90.000 49.999 Z M 90.000 49.999 "></path>
<circle r="3" fill="#3498db">
<animateMotion dur="4s" repeatCount="indefinite" rotate="auto">
<mpath xlink:href="#track1"></mpath>
</animateMotion>
</circle>
</g>
<g transform="matrix(2.410, -2.410, 2.410, 2.410, -70.604, 170.454)">
<path id="track2" fill="none" stroke="#3498db" stroke-width="2" d="M 90.000 50.000 C 90.000 50.163 89.983 50.327 89.952 50.490 C 89.919 50.654 89.871 50.817 89.807 50.980 C 89.743 51.143 89.663 51.305 89.566 51.467 C 89.470 51.629 89.359 51.790 89.231 51.950 C 89.103 52.111 88.960 52.271 88.801 52.430 C 88.642 52.588 88.467 52.746 88.277 52.902 C 88.087 53.059 87.882 53.215 87.661 53.369 C 87.441 53.523 87.205 53.676 86.955 53.826 C 86.704 53.977 86.439 54.127 86.159 54.274 C 85.880 54.423 85.585 54.569 85.276 54.714 C 84.968 54.858 84.646 55.000 84.309 55.141 C 83.971 55.281 83.622 55.419 83.258 55.555 C 82.895 55.692 82.518 55.825 82.127 55.957 C 81.738 56.089 81.335 56.217 80.920 56.344 C 80.505 56.469 80.077 56.594 79.638 56.716 C 79.198 56.836 78.747 56.955 78.285 57.071 C 77.820 57.186 77.346 57.299 76.862 57.409 C 76.376 57.519 75.881 57.626 75.375 57.729 C 74.869 57.833 74.353 57.934 73.827 58.032 C 73.302 58.129 72.767 58.223 72.222 58.314 C 71.678 58.406 71.125 58.493 70.564 58.577 C 70.002 58.661 69.433 58.742 68.855 58.819 C 68.277 58.896 67.693 58.970 67.102 59.039 C 66.510 59.109 65.912 59.176 65.307 59.238 C 64.702 59.300 64.092 59.359 63.475 59.415 C 62.859 59.470 62.238 59.522 61.611 59.569 C 60.985 59.616 60.354 59.660 59.718 59.700 C 59.084 59.739 58.445 59.775 57.804 59.808 C 57.161 59.839 56.516 59.867 55.869 59.892 C 55.221 59.915 54.572 59.935 53.920 59.951 C 53.269 59.967 52.617 59.979 51.962 59.987 C 51.309 59.995 50.654 59.999 49.999 59.999 C 49.345 59.999 48.690 59.995 48.037 59.987 C 47.382 59.979 46.730 59.967 46.079 59.951 C 45.427 59.935 44.778 59.915 44.130 59.892 C 43.483 59.867 42.838 59.839 42.195 59.808 C 41.554 59.775 40.915 59.739 40.281 59.700 C 39.645 59.660 39.014 59.616 38.388 59.569 C 37.761 59.522 37.140 59.470 36.524 59.415 C 35.907 59.359 35.297 59.300 34.692 59.238 C 34.087 59.176 33.489 59.109 32.897 59.039 C 32.306 58.970 31.722 58.896 31.144 58.819 C 30.566 58.742 29.997 58.661 29.435 58.577 C 28.874 58.493 28.321 58.406 27.777 58.314 C 27.232 58.223 26.697 58.129 26.172 58.032 C 25.646 57.934 25.130 57.833 24.624 57.729 C 24.118 57.626 23.623 57.519 23.137 57.409 C 22.653 57.299 22.179 57.186 21.714 57.071 C 21.252 56.955 20.801 56.836 20.361 56.716 C 19.922 56.594 19.494 56.469 19.079 56.344 C 18.664 56.217 18.261 56.089 17.872 55.957 C 17.481 55.825 17.104 55.692 16.741 55.555 C 16.377 55.419 16.028 55.281 15.690 55.141 C 15.353 55.000 15.031 54.858 14.723 54.714 C 14.414 54.569 14.119 54.423 13.840 54.274 C 13.560 54.127 13.295 53.977 13.044 53.826 C 12.794 53.676 12.558 53.523 12.338 53.369 C 12.117 53.215 11.912 53.059 11.722 52.902 C 11.532 52.746 11.357 52.588 11.198 52.430 C 11.039 52.271 10.896 52.111 10.768 51.950 C 10.640 51.790 10.528 51.629 10.433 51.467 C 10.336 51.305 10.256 51.143 10.192 50.980 C 10.128 50.817 10.080 50.654 10.047 50.490 C 10.016 50.327 9.999 50.163 9.999 50.000 C 9.999 49.836 10.016 49.672 10.048 49.509 C 10.080 49.346 10.128 49.182 10.192 49.019 C 10.256 48.856 10.336 48.694 10.433 48.532 C 10.528 48.370 10.641 48.209 10.768 48.049 C 10.896 47.888 11.039 47.729 11.198 47.570 C 11.357 47.410 11.532 47.253 11.721 47.097 C 11.912 46.940 12.117 46.785 12.338 46.631 C 12.558 46.477 12.794 46.324 13.044 46.172 C 13.295 46.022 13.560 45.872 13.840 45.723 C 14.120 45.576 14.414 45.430 14.723 45.286 C 15.031 45.142 15.353 44.999 15.690 44.858 C 16.027 44.718 16.377 44.580 16.741 44.443 C 17.104 44.308 17.481 44.174 17.871 44.042 C 18.261 43.911 18.664 43.782 19.079 43.656 C 19.494 43.528 19.922 43.405 20.361 43.284 C 20.801 43.163 21.253 43.044 21.715 42.928 C 22.178 42.812 22.652 42.700 23.137 42.590 C 23.622 42.480 24.118 42.373 24.623 42.269 C 25.130 42.166 25.646 42.065 26.172 41.967 C 26.697 41.870 27.233 41.776 27.777 41.684 C 28.321 41.594 28.874 41.506 29.435 41.423 C 29.997 41.338 30.566 41.257 31.144 41.180 C 31.721 41.103 32.306 41.030 32.897 40.960 C 33.490 40.890 34.087 40.823 34.693 40.761 C 35.297 40.698 35.908 40.639 36.524 40.584 C 37.140 40.529 37.762 40.477 38.388 40.429 C 39.014 40.383 39.646 40.339 40.280 40.299 C 40.915 40.260 41.555 40.224 42.195 40.192 C 42.838 40.160 43.483 40.131 44.130 40.108 C 44.778 40.084 45.427 40.063 46.079 40.047 C 46.730 40.032 47.383 40.019 48.036 40.011 C 48.691 40.003 49.345 39.999 49.999 39.999 C 50.654 39.999 51.308 40.003 51.963 40.011 C 52.616 40.019 53.269 40.032 53.920 40.047 C 54.572 40.063 55.221 40.084 55.869 40.108 C 56.516 40.131 57.161 40.160 57.804 40.192 C 58.444 40.224 59.084 40.260 59.719 40.299 C 60.353 40.339 60.985 40.383 61.611 40.429 C 62.237 40.477 62.859 40.529 63.475 40.584 C 64.091 40.639 64.702 40.698 65.306 40.761 C 65.912 40.823 66.509 40.890 67.102 40.960 C 67.693 41.030 68.278 41.103 68.855 41.180 C 69.433 41.257 70.002 41.338 70.564 41.423 C 71.125 41.506 71.678 41.594 72.222 41.684 C 72.766 41.776 73.302 41.870 73.827 41.967 C 74.353 42.065 74.869 42.166 75.376 42.269 C 75.881 42.373 76.377 42.480 76.862 42.590 C 77.347 42.700 77.821 42.812 78.284 42.928 C 78.746 43.044 79.198 43.163 79.638 43.284 C 80.077 43.405 80.505 43.528 80.920 43.656 C 81.335 43.782 81.738 43.911 82.128 44.042 C 82.518 44.174 82.895 44.308 83.258 44.443 C 83.622 44.580 83.972 44.718 84.309 44.858 C 84.646 44.999 84.968 45.142 85.276 45.286 C 85.585 45.430 85.879 45.576 86.159 45.723 C 86.439 45.872 86.704 46.022 86.955 46.172 C 87.205 46.324 87.441 46.477 87.661 46.631 C 87.882 46.785 88.087 46.940 88.278 47.097 C 88.467 47.253 88.642 47.410 88.801 47.570 C 88.960 47.729 89.103 47.888 89.231 48.049 C 89.358 48.209 89.470 48.370 89.566 48.532 C 89.663 48.694 89.743 48.856 89.807 49.019 C 89.871 49.182 89.919 49.346 89.951 49.509 C 89.983 49.672 90.000 49.836 90.000 50.000 Z M 90.000 50.000 "></path>
<circle r="3" fill="#3498db">
<animateMotion dur="6s" repeatCount="indefinite" rotate="auto">
<mpath xlink:href="#track2"></mpath>
</animateMotion>
</circle>
</g>
<g transform="matrix(3.357, -0.591, 0.591, 3.357, -26.491, 38.108)">
<path id="track3" fill="none" stroke="#3498db" stroke-width="2" d="M 105.000 50.000 C 105.000 50.245 104.982 50.490 104.946 50.736 C 104.909 50.981 104.855 51.225 104.783 51.469 C 104.710 51.714 104.621 51.958 104.513 52.200 C 104.405 52.443 104.278 52.685 104.135 52.926 C 103.991 53.167 103.830 53.406 103.651 53.645 C 103.472 53.882 103.275 54.118 103.062 54.354 C 102.848 54.589 102.617 54.821 102.369 55.053 C 102.120 55.284 101.855 55.513 101.575 55.739 C 101.293 55.967 100.994 56.191 100.679 56.413 C 100.364 56.635 100.033 56.854 99.685 57.070 C 99.339 57.287 98.976 57.500 98.597 57.711 C 98.218 57.921 97.824 58.129 97.416 58.333 C 97.007 58.537 96.583 58.738 96.144 58.936 C 95.706 59.132 95.253 59.325 94.785 59.515 C 94.318 59.705 93.837 59.891 93.342 60.073 C 92.848 60.254 92.340 60.432 91.819 60.606 C 91.299 60.779 90.765 60.949 90.219 61.114 C 89.674 61.278 89.116 61.439 88.547 61.595 C 87.978 61.751 87.397 61.902 86.806 62.048 C 86.215 62.194 85.613 62.335 85.000 62.472 C 84.387 62.608 83.766 62.739 83.134 62.865 C 82.502 62.991 81.862 63.112 81.212 63.228 C 80.563 63.344 79.905 63.455 79.240 63.560 C 78.573 63.664 77.901 63.763 77.220 63.857 C 76.540 63.951 75.853 64.040 75.160 64.122 C 74.466 64.205 73.767 64.283 73.062 64.354 C 72.357 64.425 71.648 64.490 70.933 64.550 C 70.219 64.610 69.501 64.664 68.778 64.711 C 68.056 64.759 67.331 64.801 66.602 64.837 C 65.874 64.874 65.143 64.903 64.410 64.927 C 63.678 64.952 62.943 64.969 62.208 64.981 C 61.471 64.993 60.736 65.000 60.000 64.999 C 59.263 65.000 58.527 64.993 57.791 64.981 C 57.055 64.970 56.322 64.951 55.589 64.928 C 54.855 64.903 54.125 64.873 53.396 64.837 C 52.668 64.801 51.943 64.759 51.221 64.711 C 50.498 64.663 49.780 64.609 49.065 64.550 C 48.351 64.490 47.641 64.424 46.937 64.354 C 46.232 64.282 45.533 64.205 44.839 64.122 C 44.146 64.040 43.459 63.951 42.779 63.858 C 42.098 63.764 41.426 63.665 40.759 63.559 C 40.093 63.454 39.436 63.344 38.787 63.229 C 38.137 63.113 37.497 62.992 36.865 62.865 C 36.233 62.739 35.611 62.608 34.998 62.471 C 34.386 62.335 33.785 62.194 33.193 62.048 C 32.602 61.902 32.021 61.750 31.452 61.594 C 30.882 61.439 30.325 61.279 29.780 61.114 C 29.234 60.950 28.701 60.780 28.180 60.607 C 27.659 60.432 27.151 60.255 26.657 60.073 C 26.163 59.891 25.681 59.705 25.214 59.516 C 24.746 59.325 24.294 59.133 23.855 58.935 C 23.416 58.738 22.992 58.538 22.584 58.333 C 22.174 58.129 21.780 57.921 21.402 57.712 C 21.023 57.500 20.660 57.286 20.313 57.070 C 19.966 56.855 19.635 56.634 19.320 56.413 C 19.006 56.191 18.707 55.967 18.426 55.739 C 18.143 55.513 17.877 55.284 17.630 55.053 C 17.382 54.821 17.151 54.588 16.937 54.354 C 16.723 54.119 16.527 53.883 16.348 53.644 C 16.169 53.407 16.008 53.166 15.864 52.926 C 15.720 52.685 15.594 52.443 15.487 52.201 C 15.378 51.958 15.289 51.714 15.217 51.470 C 15.144 51.226 15.090 50.981 15.054 50.735 C 15.017 50.490 15.000 50.245 15.000 50.000 C 14.999 49.754 15.018 49.508 15.054 49.263 C 15.089 49.018 15.144 48.773 15.216 48.530 C 15.288 48.285 15.379 48.042 15.487 47.799 C 15.595 47.555 15.720 47.314 15.864 47.073 C 16.008 46.832 16.170 46.593 16.348 46.355 C 16.527 46.116 16.724 45.880 16.937 45.645 C 17.151 45.411 17.382 45.177 17.631 44.946 C 17.878 44.715 18.143 44.486 18.425 44.259 C 18.707 44.033 19.005 43.809 19.320 43.586 C 19.635 43.365 19.966 43.145 20.313 42.928 C 20.660 42.712 21.023 42.498 21.401 42.288 C 21.780 42.078 22.174 41.870 22.584 41.666 C 22.992 41.462 23.416 41.261 23.856 41.064 C 24.294 40.867 24.747 40.673 25.215 40.483 C 25.681 40.293 26.162 40.108 26.657 39.927 C 27.151 39.744 27.659 39.567 28.179 39.393 C 28.700 39.219 29.234 39.050 29.779 38.885 C 30.325 38.720 30.883 38.560 31.452 38.404 C 32.021 38.249 32.601 38.097 33.192 37.951 C 33.785 37.806 34.387 37.664 34.999 37.528 C 35.611 37.391 36.234 37.260 36.865 37.133 C 37.496 37.007 38.137 36.886 38.787 36.770 C 39.437 36.654 40.094 36.545 40.760 36.440 C 41.425 36.335 42.098 36.235 42.779 36.141 C 43.459 36.048 44.146 35.959 44.840 35.876 C 45.533 35.793 46.232 35.716 46.936 35.645 C 47.641 35.574 48.351 35.508 49.065 35.449 C 49.780 35.389 50.498 35.335 51.221 35.287 C 51.942 35.240 52.668 35.198 53.396 35.162 C 54.125 35.126 54.856 35.096 55.588 35.072 C 56.322 35.048 57.056 35.029 57.791 35.017 C 58.527 35.006 59.263 34.999 59.999 34.999 C 60.735 35.000 61.472 35.005 62.208 35.017 C 62.943 35.029 63.678 35.047 64.410 35.072 C 65.143 35.096 65.873 35.126 66.602 35.162 C 67.331 35.198 68.056 35.240 68.778 35.288 C 69.500 35.335 70.219 35.390 70.933 35.449 C 71.648 35.509 72.358 35.574 73.062 35.646 C 73.767 35.716 74.466 35.793 75.160 35.876 C 75.853 35.958 76.540 36.047 77.220 36.141 C 77.900 36.236 78.574 36.335 79.240 36.439 C 79.905 36.545 80.563 36.655 81.213 36.771 C 81.861 36.886 82.502 37.008 83.134 37.134 C 83.765 37.259 84.388 37.391 85.000 37.527 C 85.613 37.664 86.215 37.805 86.806 37.951 C 87.398 38.098 87.977 38.249 88.547 38.404 C 89.116 38.560 89.674 38.720 90.220 38.885 C 90.766 39.050 91.298 39.219 91.819 39.393 C 92.340 39.566 92.847 39.744 93.342 39.927 C 93.837 40.108 94.317 40.294 94.786 40.484 C 95.252 40.673 95.705 40.867 96.143 41.064 C 96.582 41.261 97.006 41.462 97.416 41.666 C 97.824 41.870 98.218 42.078 98.598 42.288 C 98.976 42.499 99.339 42.712 99.686 42.929 C 100.033 43.145 100.364 43.364 100.679 43.586 C 100.994 43.808 101.292 44.032 101.574 44.259 C 101.856 44.485 102.121 44.715 102.369 44.946 C 102.617 45.177 102.848 45.411 103.061 45.645 C 103.276 45.881 103.472 46.117 103.650 46.355 C 103.830 46.593 103.991 46.832 104.135 47.074 C 104.278 47.314 104.404 47.556 104.513 47.799 C 104.620 48.041 104.711 48.285 104.783 48.529 C 104.855 48.774 104.909 49.018 104.946 49.263 C 104.982 49.509 105.000 49.754 105.000 50.000 Z M 105.000 50.000 "></path>
<!--  Moving Object for Track 3  -->
<circle r="3" fill="#3498db">
<animateMotion dur="8s" repeatCount="indefinite" rotate="auto">
<mpath xlink:href="#track3"></mpath>
</animateMotion>
</circle>
<circle r="3" fill="#3498db">
<animateMotion dur="10s" repeatCount="indefinite" rotate="auto">
<mpath xlink:href="#track3"></mpath>
</animateMotion>
</circle>
</g>
<path d="M 197.726 170.453 C 197.726 171.347 197.683 172.238 197.597 173.128 C 197.507 174.015 197.378 174.898 197.203 175.773 C 197.027 176.652 196.812 177.515 196.554 178.371 C 196.292 179.226 195.992 180.066 195.652 180.890 C 195.308 181.714 194.929 182.523 194.507 183.312 C 194.085 184.097 193.628 184.863 193.132 185.605 C 192.632 186.347 192.101 187.066 191.535 187.757 C 190.968 188.445 190.371 189.109 189.738 189.738 C 189.109 190.371 188.445 190.968 187.757 191.535 C 187.066 192.101 186.347 192.632 185.605 193.132 C 184.863 193.628 184.097 194.085 183.312 194.507 C 182.523 194.929 181.714 195.308 180.890 195.652 C 180.066 195.992 179.226 196.292 178.371 196.554 C 177.515 196.812 176.652 197.027 175.773 197.203 C 174.898 197.378 174.015 197.507 173.128 197.597 C 172.238 197.683 171.347 197.726 170.453 197.726 C 169.562 197.726 168.671 197.683 167.781 197.597 C 166.890 197.507 166.011 197.378 165.132 197.203 C 164.257 197.027 163.390 196.812 162.539 196.554 C 161.683 196.292 160.843 195.992 160.019 195.652 C 159.191 195.308 158.386 194.929 157.597 194.507 C 156.808 194.085 156.046 193.628 155.300 193.132 C 154.558 192.632 153.843 192.101 153.152 191.535 C 152.460 190.968 151.800 190.371 151.167 189.738 C 150.539 189.109 149.937 188.445 149.371 187.757 C 148.804 187.066 148.273 186.347 147.777 185.605 C 147.281 184.863 146.824 184.097 146.402 183.312 C 145.980 182.523 145.601 181.714 145.257 180.890 C 144.914 180.066 144.617 179.226 144.355 178.371 C 144.097 177.515 143.878 176.652 143.707 175.773 C 143.531 174.898 143.402 174.015 143.312 173.128 C 143.226 172.238 143.183 171.347 143.183 170.453 C 143.183 169.562 143.226 168.671 143.312 167.781 C 143.402 166.890 143.531 166.011 143.707 165.132 C 143.878 164.257 144.097 163.390 144.355 162.539 C 144.617 161.683 144.914 160.843 145.257 160.019 C 145.601 159.191 145.980 158.386 146.402 157.597 C 146.824 156.808 147.281 156.046 147.777 155.300 C 148.273 154.558 148.804 153.843 149.371 153.152 C 149.937 152.460 150.539 151.800 151.167 151.167 C 151.800 150.539 152.460 149.937 153.152 149.371 C 153.843 148.804 154.558 148.273 155.300 147.777 C 156.046 147.281 156.808 146.824 157.597 146.402 C 158.386 145.980 159.191 145.601 160.019 145.257 C 160.843 144.914 161.683 144.617 162.539 144.355 C 163.390 144.097 164.257 143.878 165.132 143.707 C 166.011 143.531 166.890 143.402 167.781 143.312 C 168.671 143.226 169.562 143.183 170.453 143.183 C 171.347 143.183 172.238 143.226 173.128 143.312 C 174.015 143.402 174.898 143.531 175.773 143.707 C 176.652 143.878 177.515 144.097 178.371 144.355 C 179.226 144.617 180.066 144.914 180.890 145.257 C 181.714 145.601 182.523 145.980 183.312 146.402 C 184.097 146.824 184.863 147.281 185.605 147.777 C 186.347 148.273 187.066 148.804 187.757 149.371 C 188.445 149.937 189.109 150.539 189.738 151.167 C 190.371 151.800 190.968 152.460 191.535 153.152 C 192.101 153.843 192.632 154.558 193.132 155.300 C 193.628 156.046 194.085 156.808 194.507 157.597 C 194.929 158.386 195.308 159.191 195.652 160.019 C 195.992 160.843 196.292 161.683 196.554 162.539 C 196.812 163.390 197.027 164.257 197.203 165.132 C 197.378 166.011 197.507 166.890 197.597 167.781 C 197.683 168.671 197.726 169.562 197.726 170.453 Z M 197.726 170.453 " style="fill: rgb(52, 152, 219);"></path>
</svg>
